Coordinates
version=1
nRows=14
nColumns=24
inDegrees=yes

Units are S.I. units (second, meters, Newtons, ...)
Angles are in degrees.

endheader
time	pelvis_tilt	pelvis_list	pelvis_rotation	pelvis_tx	pelvis_ty	pelvis_tz	hip_flexion_r	hip_adduction_r	hip_rotation_r	knee_angle_r	ankle_angle_r	subtalar_angle_r	mtp_angle_r	hip_flexion_l	hip_adduction_l	hip_rotation_l	knee_angle_l	ankle_angle_l	subtalar_angle_l	mtp_angle_l	lumbar_extension	lumbar_bending	lumbar_rotation
      4.53000000	    -10.34921134	      6.40714297	      2.95906974	     -0.09432488	     -0.01924694	      0.58918431	     26.59280643	    -11.58700402	     -4.89952321	    -63.52099012	     -4.28905917	     -1.99068114	     11.88549718	     18.04456036	     10.93827293	     -2.03330087	    -17.39879267	      2.87953425	      5.08086628	     11.71089012	      6.91694533	     -8.63130404	     -4.03150131
      4.53500000	    -10.28848213	      6.10806578	      3.34056351	     -0.08791151	     -0.01819673	      0.58846555	     27.14874643	    -11.37282840	     -5.34057301	    -62.82577116	     -4.08062479	     -1.80959685	     12.00669820	     17.20049406	     10.80929384	     -1.22792484	    -16.85667993	      2.98478071	      4.81881514	     11.45876970	      6.82234563	     -8.38251101	     -4.58077320
      4.54000000	    -10.24004415	      5.80494003	      3.69808597	     -0.08145660	     -0.01721040	      0.58776819	     27.69590447	    -11.14993017	     -5.77740002	    -62.04890067	     -3.89993504	     -1.68079816	     12.09457616	     16.37801240	     10.65077850	     -0.50366817	    -16.32319513	      3.07425038	      4.56830088	     11.18123532	      6.75982698	     -8.12096431	     -5.02077332
      4.54500000	    -10.20637173	      5.49832280	      4.04530583	     -0.07506428	     -0.01633528	      0.58713445	     28.25327924	    -10.90403890	     -6.17320133	    -61.21789821	     -3.75381489	     -1.60542885	     12.11419902	     15.60158264	     10.46010528	      0.13599472	    -15.82585210	      3.19658762	      4.40013435	     10.96128170	      6.70500371	     -7.85786071	     -5.51840025
      4.55000000	    -10.16280598	      5.20823627	      4.40230544	     -0.06864852	     -0.01552496	      0.58650066	     28.77435271	    -10.68922524	     -6.59331042	    -60.32306595	     -3.63234291	     -1.60915179	     12.07753161	     14.81185717	     10.27465812	      0.78522082	    -15.32172813	      3.31415007	      4.23315270	     10.72819362	      6.64345026	     -7.61446587	     -5.98619652
      4.55500000	    -10.15199617	      4.90555784	      4.72757528	     -0.06222185	     -0.01481817	      0.58589650	     29.31717700	    -10.45046606	     -6.98570173	    -59.36063542	     -3.53234888	     -1.63742637	     11.98578166	     14.07842023	     10.05030508	      1.31235118	    -14.83819405	      3.44028163	      4.12651781	     10.55153312	      6.62994469	     -7.34776836	     -6.37876111
      4.56000000	    -10.11252856	      4.63836681	      5.08838258	     -0.05582011	     -0.01418323	      0.58529866	     29.80476224	    -10.26954731	     -7.41155582	    -58.35270727	     -3.45003493	     -1.77551061	     11.82469463	     13.30932426	      9.85561413	      1.91000762	    -14.34653024	      3.57660592	      4.03208396	     10.36251632	      6.57222681	     -7.13083558	     -6.83734638
      4.56500000	    -10.07369958	      4.39077388	      5.42977373	     -0.04941042	     -0.01363237	      0.58473097	     30.27747587	    -10.10326407	     -7.81269977	    -57.28924239	     -3.37660621	     -1.95000129	     11.60001404	     12.54661478	      9.66298123	      2.46290361	    -13.85800825	      3.71416096	      3.94423442	     10.17435136	      6.51944838	     -6.93378257	     -7.26626015
      4.57000000	    -10.03384589	      4.16338952	      5.76359465	     -0.04301322	     -0.01317365	      0.58418121	     30.73287134	     -9.95998540	     -8.20618899	    -56.17754307	     -3.30764986	     -2.17113176	     11.29742883	     11.78896532	      9.47599404	      2.98554186	    -13.37315531	      3.85629046	      3.87846875	      9.99232363	      6.46190403	     -6.75330621	     -7.68690900
      4.57500000	    -10.00343740	      3.95311601	      6.07539744	     -0.03661592	     -0.01281957	      0.58367416	     31.18398950	     -9.82786389	     -8.57734096	    -55.01658075	     -3.23996571	     -2.42156161	     10.92522792	     11.04866150	      9.28861193	      3.45325891	    -12.89270359	      4.00954698	      3.84542068	      9.83318254	      6.41553100	     -6.58780941	     -8.07336580
      4.58000000	     -9.92512623	      3.79371549	      6.39555486	     -0.03024100	     -0.01252051	      0.58318763	     31.56333747	     -9.75474863	     -8.95026921	    -53.82608874	     -3.14083026	     -2.67175355	     10.36448399	     10.24982004	      9.14133206	      3.95148510	    -12.40478243	      4.15922392	      3.79844053	      9.62610426	      6.30161724	     -6.47890593	     -8.49766806
      4.58500000	     -9.94821876	      3.58639871	      6.64754894	     -0.02380150	     -0.01239344	      0.58275343	     32.03558882	     -9.60700382	     -9.27446567	    -52.54960305	     -3.09129105	     -2.96786957	      9.88888352	      9.59211254	      8.92782695	      4.27015823	    -11.95269661	      4.33624473	      3.82152582	      9.52856805	      6.33003280	     -6.30884877	     -8.77712969
      4.59000000	     -9.91363014	      3.41753896	      6.92334862	     -0.01739071	     -0.01230292	      0.58233205	     32.41686403	     -9.51122560	     -9.62848976	    -51.23349623	     -3.02795067	     -3.30806364	      9.27904468	      8.86927608	      8.74240613	      4.62744661	    -11.49846118	      4.52005157	      3.86682524	      9.42213847	      6.27849273	     -6.18181943	     -9.11695882
      4.59500000	     -9.81656514	      3.31222302	      7.18615949	     -0.01099655	     -0.01226538	      0.58194168	     32.71819509	     -9.47547997	     -9.96301151	    -49.91092079	     -2.89388230	     -3.53823562	      8.34898221	      8.06406336	      8.60694346	      5.01031689	    -11.02744193	      4.70901562	      3.89786470	      9.25368412	      6.14232613	     -6.11398029	     -9.46785273
